<svg width="200" height="119" viewBox="0 0 200 119" fill="none" xmlns="http://www.w3.org/2000/svg">
<g clip-path="url(#clip0_122_257)">
<path d="M153.125 117.654C150.564 115.501 149.009 112.099 149.417 108.788C149.825 105.477 152.351 102.432 155.628 101.729C158.905 101.026 162.64 102.973 163.636 106.158C164.183 100.016 164.815 93.6169 168.096 88.3864C171.067 83.6502 176.213 80.2614 181.79 79.6551C187.367 79.0488 193.239 81.3386 196.717 85.7194C200.195 90.1002 201.047 96.469 198.611 101.499C196.816 105.204 193.51 107.961 190.046 110.204C178.852 117.392 165.427 120.315 152.24 118.435L153.125 117.654Z" fill="#F2F2F2"/>
<path d="M191.202 81.4656C186.6 85.1958 182.378 89.3678 178.598 93.9212C172.682 101.023 167.894 108.985 164.402 117.53C164.147 118.154 165.164 118.425 165.417 117.809C171.13 103.921 180.251 91.6798 191.946 82.2058C192.471 81.7802 191.723 81.0435 191.202 81.4656Z" fill="white"/>
<path d="M64.3832 117.069C67.9001 114.112 70.0363 109.44 69.4761 104.891C68.9159 100.343 65.4461 96.1619 60.9452 95.1961C56.4443 94.2302 51.3136 96.9038 49.9465 101.28C49.1941 92.8434 48.3272 84.0538 43.8204 76.8697C39.7397 70.3646 32.6718 65.71 25.0118 64.8773C17.3517 64.0446 9.28672 67.1896 4.50944 73.2067C-0.267838 79.2237 -1.43753 87.9712 1.90835 94.8793C4.37314 99.9682 8.91416 103.755 13.672 106.837C28.8512 116.666 47.681 120.766 65.5978 118.142" fill="#F2F2F2"/>
<path d="M12.0844 67.364C18.4048 72.4875 24.2032 78.2177 29.3956 84.4717C34.5888 90.7194 39.1609 97.4536 43.0476 104.58C45.22 108.577 47.1716 112.69 48.8936 116.899C49.2447 117.755 47.8477 118.128 47.5005 117.281C44.4504 109.86 40.6769 102.755 36.234 96.0667C31.8128 89.4027 26.7524 83.1813 21.124 77.4898C17.9405 74.2722 14.5817 71.2312 11.0628 68.3807C10.3415 67.7962 11.369 66.7843 12.0844 67.364Z" fill="white"/>
<path d="M143.563 118.74H59.6553V33.0595C59.6553 14.8304 74.5569 0 92.8736 0H110.345C128.662 0 143.563 14.8304 143.563 33.0595V118.74Z" fill="#F2F2F2"/>
<path d="M126.092 118.74H59.6551V33.0595C59.6368 26.0745 61.8593 19.2661 65.999 13.6254C66.1516 13.4184 66.3038 13.2141 66.4608 13.012C68.4631 10.3984 70.846 8.09663 73.5307 6.18267C73.6823 6.07285 73.8346 5.96494 73.9891 5.85703C76.2356 4.30985 78.6657 3.04506 81.2241 2.09145C81.376 2.03415 81.5307 1.97673 81.6854 1.92165C83.9992 1.09987 86.3978 0.536956 88.8367 0.243299C88.9879 0.222743 89.1432 0.206657 89.2984 0.190571C91.6752 -0.0623438 94.0723 -0.0623438 96.4491 0.190571C96.6039 0.206657 96.7591 0.222741 96.9121 0.243519C99.3505 0.537195 101.748 1.10004 104.062 1.92166C104.216 1.97674 104.371 2.03415 104.523 2.09157C107.05 3.03315 109.452 4.27907 111.674 5.80151C111.829 5.90708 111.983 6.015 112.136 6.12291C113.64 7.19196 115.054 8.38295 116.362 9.68372C117.41 10.7271 118.388 11.8392 119.287 13.0127C119.443 13.2141 119.595 13.4185 119.748 13.6251C123.888 19.2658 126.11 26.0744 126.092 33.0595V118.74Z" fill="#CCCCCC"/>
<path d="M120.69 80.418C122.721 80.418 124.368 78.7791 124.368 76.7574C124.368 74.7358 122.721 73.0969 120.69 73.0969C118.658 73.0969 117.011 74.7358 117.011 76.7574C117.011 78.7791 118.658 80.418 120.69 80.418Z" fill="#1B7339"/>
<path d="M136.689 116.173H133.871L132.53 105.354L136.69 105.355L136.689 116.173Z" fill="#FFB8B8"/>
<path d="M131.858 115.372H137.293V118.778H128.436C128.436 118.33 128.524 117.888 128.696 117.474C128.868 117.061 129.12 116.686 129.438 116.369C129.756 116.053 130.133 115.802 130.548 115.631C130.963 115.46 131.408 115.372 131.858 115.372Z" fill="#2F2E41"/>
<path d="M150.713 116.173H147.894L146.553 105.354L150.713 105.355L150.713 116.173Z" fill="#FFB8B8"/>
<path d="M145.881 115.372H151.316V118.778H142.458C142.458 118.33 142.547 117.888 142.719 117.474C142.891 117.061 143.143 116.686 143.461 116.369C143.779 116.053 144.156 115.802 144.571 115.631C144.986 115.46 145.431 115.372 145.881 115.372Z" fill="#2F2E41"/>
<path d="M122.551 77.4826C122.348 77.1853 122.214 76.8474 122.156 76.4926C122.099 76.1379 122.121 75.7749 122.219 75.4294C122.318 75.0838 122.492 74.764 122.729 74.4925C122.965 74.221 123.258 74.0044 123.588 73.8579L133.169 47.5782L137.883 50.1386L126.944 75.2525C127.154 75.82 127.148 76.4447 126.927 77.0081C126.706 77.5715 126.284 78.0345 125.743 78.3094C125.201 78.5842 124.577 78.6519 123.989 78.4995C123.401 78.3472 122.889 77.9853 122.551 77.4826Z" fill="#FFB8B8"/>
<path d="M149.273 82.4207C148.959 82.242 148.689 81.9971 148.482 81.7033C148.274 81.4094 148.133 81.0739 148.07 80.7201C148.006 80.3664 148.022 80.0032 148.115 79.6559C148.208 79.3087 148.376 78.986 148.608 78.7106L145.64 50.911L151.005 51.1549L152.238 78.4995C152.677 78.9177 152.947 79.4817 152.996 80.0846C153.046 80.6876 152.871 81.2876 152.505 81.7709C152.14 82.2543 151.609 82.5874 151.013 82.7071C150.417 82.8269 149.798 82.725 149.273 82.4207Z" fill="#FFB8B8"/>
<path d="M140.714 42.7104C143.832 42.7104 146.36 40.1946 146.36 37.0912C146.36 33.9878 143.832 31.472 140.714 31.472C137.596 31.472 135.068 33.9878 135.068 37.0912C135.068 40.1946 137.596 42.7104 140.714 42.7104Z" fill="#FFB8B8"/>
<path d="M149.237 76.0982H132.214L132.235 75.9664C132.265 75.7694 135.269 56.1904 133.054 49.7852C132.831 49.1557 132.851 48.4667 133.109 47.8507C133.366 47.2347 133.844 46.7353 134.449 46.4487C137.615 44.9649 143.692 43.1379 148.821 47.5718C149.576 48.235 150.166 49.0639 150.543 49.9929C150.92 50.9219 151.075 51.9255 150.996 52.9245L149.237 76.0982Z" fill="#1B7339"/>
<path d="M135.484 59.0839L127.82 57.5366L131.412 49.0647C131.627 48.2442 132.16 47.542 132.895 47.1122C133.629 46.6823 134.505 46.56 135.33 46.772C136.155 46.9839 136.862 47.5129 137.296 48.2428C137.729 48.9728 137.854 49.8441 137.644 50.6656L135.484 59.0839Z" fill="#1B7339"/>
<path d="M145.299 61.9569L144.838 51.4462C144.489 49.4703 145.625 47.6025 147.373 47.2972C149.122 46.993 150.829 48.3634 151.18 50.3538L152.912 60.175L145.299 61.9569Z" fill="#1B7339"/>
<path d="M148.67 74.8399C151.409 85.2214 151.708 98.4207 150.969 112.818L147.291 112.361L140.624 84.9065L136.946 112.818L132.808 112.589C131.572 97.4828 130.368 84.514 132.348 75.9838L148.67 74.8399Z" fill="#2F2E41"/>
<path d="M144.434 41.4339C143.381 42.5506 141.425 41.9511 141.287 40.4256C141.277 40.3072 141.277 40.188 141.29 40.0697C141.361 39.394 141.753 38.7805 141.659 38.067C141.638 37.8894 141.571 37.7202 141.466 37.5754C140.626 36.4568 138.656 38.0757 137.864 37.0631C137.378 36.4421 137.949 35.4645 137.576 34.7705C137.084 33.8546 135.627 34.3064 134.713 33.8048C133.697 33.2467 133.758 31.6942 134.427 30.7499C135.243 29.5983 136.674 28.9838 138.087 28.8952C139.501 28.8066 140.904 29.1868 142.224 29.6986C143.723 30.28 145.209 31.0835 146.132 32.3954C147.254 33.9907 147.362 36.1355 146.801 38.001C146.459 39.1358 145.294 40.5221 144.434 41.4339Z" fill="#2F2E41"/>
<path d="M193.099 118.887H23.3764C23.304 118.887 23.2346 118.858 23.1834 118.807C23.1322 118.756 23.1035 118.686 23.1035 118.614C23.1035 118.542 23.1322 118.473 23.1834 118.422C23.2346 118.371 23.304 118.342 23.3764 118.342H193.099C193.172 118.342 193.241 118.371 193.292 118.422C193.343 118.473 193.372 118.542 193.372 118.614C193.372 118.686 193.343 118.756 193.292 118.807C193.241 118.858 193.172 118.887 193.099 118.887Z" fill="#3F3D56"/>
<path d="M107.816 93.9163H77.931C77.5374 93.9184 77.1591 93.7651 76.879 93.49C76.5988 93.2148 76.4398 92.8403 76.4368 92.4486V26.0621C76.4398 25.6705 76.5988 25.2959 76.879 25.0208C77.1591 24.7456 77.5374 24.5923 77.931 24.5944H107.816C108.21 24.5923 108.588 24.7456 108.868 25.0208C109.148 25.2959 109.307 25.6705 109.31 26.0621V92.4486C109.307 92.8403 109.148 93.2148 108.868 93.49C108.588 93.7651 108.21 93.9184 107.816 93.9163Z" fill="white"/>
<path d="M109.31 46.075H76.4368V46.5326H109.31V46.075Z" fill="#CCCCCC"/>
<path d="M109.425 72.1817H76.5518V72.6393H109.425V72.1817Z" fill="#CCCCCC"/>
<path d="M87.2413 24.5944H86.7815V94.1451H87.2413V24.5944Z" fill="#CCCCCC"/>
<path d="M98.7356 24.5944H98.2759V94.1451H98.7356V24.5944Z" fill="#CCCCCC"/>
</g>
<defs>
<clipPath id="clip0_122_257">
<rect width="200" height="119" fill="white"/>
</clipPath>
</defs>
</svg>
